<svg width="100" height="100" viewBox="0 0 100 100" fill="none" xmlns="http://www.w3.org/2000/svg">
<path fill-rule="evenodd" clip-rule="evenodd" d="M0 50L9.80392 55.7735L8.33333 51H92.2301C92.5834 52.839 94.172 54.2265 96.0784 54.2265C98.2443 54.2265 100 52.4356 100 50.2265C100 48.0174 98.2443 46.2265 96.0784 46.2265C94.3321 46.2265 92.8523 47.3909 92.3447 49H8.33333L9.80392 44.2265L0 50ZM94.1176 50.2265C94.1176 49.1219 94.9955 48.2265 96.0784 48.2265C97.1613 48.2265 98.0392 49.1219 98.0392 50.2265C98.0392 51.3311 97.1613 52.2265 96.0784 52.2265C94.9955 52.2265 94.1176 51.3311 94.1176 50.2265Z" fill="white"/>
</svg>
