<svg width="100" height="100" viewBox="0 0 100 100" fill="none" xmlns="http://www.w3.org/2000/svg">
<path fill-rule="evenodd" clip-rule="evenodd" d="M49.453 0.00293565C49.6351 0.000980139 49.8174 0 50 0C50.1826 0 50.3649 0.000980139 50.547 0.00293565L50.4611 8.00247C50.3076 8.00083 50.1539 8 50 8C49.8461 8 49.6924 8.00083 49.5389 8.00247L49.453 0.00293565ZM51.6372 0.0263371C52.0002 0.0380323 52.3623 0.0536036 52.7234 0.0730135L52.2941 8.06148C51.9901 8.04515 51.6853 8.03204 51.3796 8.02219L51.6372 0.0263371ZM47.2766 0.073014C47.6377 0.0536041 47.9998 0.0380325 48.3628 0.0263374L48.6204 8.02219C48.3147 8.03204 48.0099 8.04515 47.7059 8.06148L47.2766 0.073014ZM53.8138 0.143466C54.1762 0.170834 54.5376 0.202071 54.898 0.237138L54.1231 8.19952C53.8202 8.17004 53.5163 8.14377 53.2114 8.12076L53.8138 0.143466ZM45.102 0.23714C45.4623 0.202073 45.8238 0.170835 46.1862 0.143467L46.7886 8.12076C46.4837 8.14378 46.1798 8.17004 45.8769 8.19952L45.102 0.23714ZM55.984 0.354779C56.3455 0.397935 56.7059 0.444952 57.0651 0.495791L55.9439 8.41684C55.6423 8.37415 55.3395 8.33465 55.0357 8.29839L55.984 0.354779ZM42.9349 0.495795C43.2941 0.444956 43.6545 0.397938 44.016 0.354782L44.9642 8.29839C44.6605 8.33465 44.3577 8.37415 44.056 8.41685L42.9349 0.495795ZM58.1435 0.660463C58.5032 0.719429 58.8617 0.782238 59.2189 0.848848L57.7523 8.71327C57.4525 8.65736 57.1516 8.60463 56.8495 8.55512L58.1435 0.660463ZM40.7811 0.848855C41.1382 0.782245 41.4967 0.719435 41.8565 0.660468L43.1505 8.55513C42.8484 8.60464 42.5475 8.65736 42.2477 8.71327L40.7811 0.848855ZM60.2881 1.06037C60.6452 1.1351 61.001 1.21365 61.3553 1.29596L59.5451 9.08846C59.2478 9.0194 58.9493 8.9535 58.6496 8.89078L60.2881 1.06037ZM38.6446 1.29597C38.999 1.21365 39.3547 1.13511 39.7119 1.06038L41.3504 8.89079C41.0507 8.9535 40.7521 9.01941 40.4548 9.08847L38.6446 1.29597ZM62.414 1.55416C62.7675 1.6445 63.1196 1.73862 63.4701 1.83645L61.3192 9.5419C61.0252 9.45983 60.7299 9.38088 60.4333 9.30508L62.414 1.55416ZM36.5299 1.83646C36.8804 1.73863 37.2324 1.64451 37.586 1.55417L39.5667 9.30509C39.2701 9.38088 38.9747 9.45984 38.6807 9.54191L36.5299 1.83646ZM64.5174 2.14124C64.8662 2.24692 65.2135 2.35632 65.559 2.46937L63.0715 10.0728C62.7816 9.97797 62.4904 9.88621 62.1978 9.79756L64.5174 2.14124ZM34.4409 2.46939C34.7865 2.35633 35.1337 2.24694 35.4826 2.14125L37.8022 9.79757C37.5096 9.88622 37.2183 9.97799 36.9285 10.0728L34.4409 2.46939ZM66.5927 2.82016C66.9362 2.94097 67.278 3.06543 67.618 3.19348L64.7988 10.6802C64.5135 10.5728 64.2267 10.4684 63.9386 10.3671L66.5927 2.82016ZM32.3819 3.19349C32.722 3.06544 33.0638 2.94098 33.4073 2.82017L36.0614 10.3671C35.7732 10.4684 35.4865 10.5728 35.2012 10.6802L32.3819 3.19349ZM68.6357 3.58952C68.9734 3.72522 69.3092 3.86449 69.6431 4.00729L66.4978 11.363C66.2176 11.2432 65.9358 11.1264 65.6525 11.0125L68.6357 3.58952ZM30.3568 4.0073C30.6908 3.86451 31.0266 3.72524 31.3643 3.58954L34.3475 11.0125C34.0642 11.1264 33.7824 11.2432 33.5022 11.363L30.3568 4.0073ZM70.6426 4.44773C70.9739 4.59806 71.3032 4.75189 71.6305 4.90917L68.1657 12.1199C67.8909 11.9879 67.6146 11.8588 67.3366 11.7326L70.6426 4.44773ZM28.3694 4.90918C28.6968 4.7519 29.0261 4.59807 29.3573 4.44774L32.6634 11.7326C32.3854 11.8588 32.109 11.9879 31.8343 12.1199L28.3694 4.90918ZM72.6097 5.39295C72.9341 5.55768 73.2564 5.72584 73.5767 5.89738L69.7995 12.9495C69.5306 12.8055 69.2599 12.6643 68.9876 12.526L72.6097 5.39295ZM26.4233 5.89739C26.7435 5.72586 27.0659 5.5577 27.3903 5.39297L31.0124 12.526C30.74 12.6643 30.4694 12.8055 30.2005 12.9495L26.4233 5.89739ZM74.5331 6.42319C74.85 6.60196 75.1648 6.78408 75.4773 6.9695L71.3956 13.8498C71.1331 13.6941 70.8687 13.5412 70.6026 13.391L74.5331 6.42319ZM24.5226 6.96952C24.8352 6.7841 25.1499 6.60198 25.4668 6.42321L29.3974 13.391C29.1313 13.5412 28.8669 13.6941 28.6044 13.8499L24.5226 6.96952ZM76.4094 7.53631C76.7182 7.72873 77.0248 7.92442 77.329 8.12333L72.9511 14.8191C72.6955 14.652 72.4379 14.4876 72.1785 14.326L76.4094 7.53631ZM22.671 8.12335C22.9752 7.92444 23.2817 7.72875 23.5905 7.53633L27.8215 14.326C27.562 14.4876 27.3045 14.652 27.0489 14.8192L22.671 8.12335ZM78.2352 8.73001C78.5352 8.93568 78.833 9.14453 79.1283 9.35651L74.4631 15.8554C74.2149 15.6772 73.9647 15.5017 73.7125 15.3289L78.2352 8.73001ZM20.8717 9.35653C21.167 9.14455 21.4647 8.9357 21.7648 8.73003L26.2875 15.3289C26.0353 15.5018 25.7851 15.6773 25.5369 15.8554L20.8717 9.35653ZM80.007 10.0019C80.2978 10.2204 80.5862 10.442 80.872 10.6666L75.9287 16.9566C75.6885 16.7678 75.4461 16.5815 75.2016 16.3979L80.007 10.0019ZM19.128 10.6666C19.4138 10.442 19.7022 10.2204 19.993 10.0019L24.7983 16.3979C24.5539 16.5815 24.3115 16.7678 24.0712 16.9566L19.128 10.6666ZM81.7218 11.3495C82.0028 11.5804 82.2812 11.8142 82.557 12.051L77.3454 18.1205C77.1135 17.9214 76.8794 17.7248 76.6432 17.5308L81.7218 11.3495ZM17.443 12.051C17.7188 11.8142 17.9972 11.5804 18.2781 11.3496L23.3568 17.5308C23.1205 17.7249 22.8865 17.9215 22.6546 18.1206L17.443 12.051ZM83.3764 12.7702C83.647 13.013 83.915 13.2586 84.1802 13.5071L78.7103 19.3449C78.4873 19.136 78.262 18.9294 78.0344 18.7253L83.3764 12.7702ZM15.8198 13.5071C16.085 13.2586 16.3529 13.013 16.6235 12.7703L21.9655 18.7253C21.738 18.9294 21.5127 19.136 21.2897 19.345L15.8198 13.5071ZM84.9677 14.2612C85.2275 14.5154 85.4845 14.7725 85.7387 15.0322L80.0209 20.6274C79.8071 20.409 79.591 20.1929 79.3726 19.9791L84.9677 14.2612ZM14.2612 15.0323C14.5154 14.7725 14.7725 14.5155 15.0322 14.2613L20.6274 19.9791C20.409 20.1929 20.1929 20.409 19.9791 20.6275L14.2612 15.0323ZM86.4929 15.8198C86.7414 16.085 86.987 16.3529 87.2297 16.6235L81.2747 21.9655C81.0706 21.738 80.864 21.5127 80.655 21.2897L86.4929 15.8198ZM12.7702 16.6236C13.013 16.353 13.2586 16.085 13.5071 15.8198L19.3449 21.2897C19.136 21.5127 18.9294 21.738 18.7253 21.9656L12.7702 16.6236ZM87.949 17.443C88.1858 17.7188 88.4196 17.9972 88.6504 18.2781L82.4692 23.3568C82.2751 23.1205 82.0785 22.8865 81.8794 22.6546L87.949 17.443ZM11.3495 18.2782C11.5804 17.9972 11.8142 17.7188 12.051 17.443L18.1205 22.6546C17.9214 22.8865 17.7248 23.1206 17.5308 23.3568L11.3495 18.2782ZM89.3334 19.128C89.558 19.4138 89.7796 19.7022 89.9981 19.993L83.6021 24.7983C83.4185 24.5539 83.2322 24.3115 83.0434 24.0712L89.3334 19.128ZM10.0019 19.993C10.2204 19.7022 10.442 19.4138 10.6666 19.128L16.9566 24.0713C16.7678 24.3115 16.5815 24.5539 16.3979 24.7984L10.0019 19.993ZM90.6435 20.8717C90.8555 21.167 91.0643 21.4647 91.27 21.7648L84.6711 26.2875C84.4982 26.0353 84.3227 25.7851 84.1446 25.5369L90.6435 20.8717ZM8.73001 21.7648C8.93568 21.4647 9.14453 21.167 9.35651 20.8717L15.8554 25.5369C15.6772 25.7851 15.5017 26.0353 15.3289 26.2875L8.73001 21.7648ZM91.8766 22.671C92.0756 22.9752 92.2712 23.2817 92.4637 23.5905L85.674 27.8215C85.5124 27.562 85.348 27.3045 85.1808 27.0489L91.8766 22.671ZM7.53631 23.5906C7.72873 23.2818 7.92442 22.9752 8.12333 22.671L14.8191 27.0489C14.652 27.3045 14.4876 27.5621 14.326 27.8215L7.53631 23.5906ZM93.0305 24.5226C93.2159 24.8352 93.398 25.1499 93.5768 25.4668L86.609 29.3974C86.4588 29.1313 86.3059 28.8669 86.1501 28.6044L93.0305 24.5226ZM6.42319 25.4669C6.60196 25.15 6.78408 24.8352 6.9695 24.5227L13.8498 28.6044C13.6941 28.8669 13.5412 29.1313 13.391 29.3974L6.42319 25.4669ZM94.1026 26.4233C94.2741 26.7435 94.4423 27.0659 94.607 27.3903L87.474 31.0124C87.3357 30.74 87.1945 30.4694 87.0505 30.2005L94.1026 26.4233ZM5.39295 27.3903C5.55768 27.0659 5.72584 26.7436 5.89738 26.4233L12.9495 30.2005C12.8055 30.4694 12.6643 30.7401 12.526 31.0124L5.39295 27.3903ZM95.0908 28.3694C95.2481 28.6968 95.4019 29.0261 95.5523 29.3573L88.2674 32.6634C88.1412 32.3854 88.0121 32.109 87.8801 31.8343L95.0908 28.3694ZM4.44773 29.3574C4.59806 29.0261 4.75189 28.6968 4.90917 28.3695L12.1199 31.8343C11.9879 32.1091 11.8588 32.3855 11.7326 32.6634L4.44773 29.3574ZM95.9927 30.3568C96.1355 30.6908 96.2748 31.0266 96.4105 31.3643L88.9875 34.3475C88.8736 34.0642 88.7568 33.7824 88.637 33.5022L95.9927 30.3568ZM3.58952 31.3643C3.72522 31.0266 3.86449 30.6908 4.00729 30.3569L11.363 33.5022C11.2432 33.7824 11.1264 34.0642 11.0125 34.3475L3.58952 31.3643ZM96.8065 32.3819C96.9346 32.722 97.059 33.0638 97.1798 33.4073L89.6329 36.0614C89.5316 35.7732 89.4272 35.4865 89.3197 35.2012L96.8065 32.3819ZM2.82016 33.4073C2.94097 33.0638 3.06543 32.722 3.19348 32.382L10.6802 35.2012C10.5728 35.4865 10.4684 35.7733 10.3671 36.0614L2.82016 33.4073ZM97.5306 34.4409C97.6437 34.7865 97.7531 35.1337 97.8587 35.4826L90.2024 37.8022C90.1138 37.5096 90.022 37.2183 89.9272 36.9285L97.5306 34.4409ZM2.14124 35.4826C2.24692 35.1338 2.35632 34.7865 2.46937 34.441L10.0728 36.9285C9.97797 37.2184 9.88621 37.5096 9.79756 37.8022L2.14124 35.4826ZM98.1635 36.5299C98.2614 36.8804 98.3555 37.2324 98.4458 37.586L90.6949 39.5667C90.6191 39.2701 90.5402 38.9747 90.4581 38.6807L98.1635 36.5299ZM1.55416 37.586C1.6445 37.2325 1.73862 36.8804 1.83645 36.5299L9.5419 38.6808C9.45983 38.9748 9.38088 39.2701 9.30508 39.5667L1.55416 37.586ZM98.704 38.6446C98.7863 38.999 98.8649 39.3547 98.9396 39.7119L91.1092 41.3504C91.0465 41.0507 90.9806 40.7521 90.9115 40.4548L98.704 38.6446ZM1.06037 39.7119C1.1351 39.3548 1.21365 38.999 1.29596 38.6447L9.08846 40.4549C9.0194 40.7522 8.9535 41.0507 8.89078 41.3504L1.06037 39.7119ZM99.1511 40.7811C99.2178 41.1382 99.2806 41.4967 99.3395 41.8565L91.4449 43.1505C91.3954 42.8484 91.3426 42.5475 91.2867 42.2477L99.1511 40.7811ZM0.660463 41.8565C0.719429 41.4968 0.782238 41.1383 0.848848 40.7811L8.71327 42.2477C8.65736 42.5475 8.60463 42.8484 8.55512 43.1505L0.660463 41.8565ZM99.5042 42.9349C99.555 43.2941 99.6021 43.6545 99.6452 44.016L91.7016 44.9642C91.6654 44.6605 91.6259 44.3577 91.5832 44.056L99.5042 42.9349ZM0.354779 44.016C0.397935 43.6545 0.444952 43.2941 0.495791 42.9349L8.41684 44.0561C8.37415 44.3577 8.33465 44.6605 8.29839 44.9643L0.354779 44.016ZM99.7629 45.102C99.7979 45.4623 99.8292 45.8238 99.8565 46.1862L91.8792 46.7886C91.8562 46.4837 91.83 46.1798 91.8005 45.8769L99.7629 45.102ZM0.143466 46.1862C0.170834 45.8238 0.202071 45.4624 0.237138 45.102L8.19952 45.8769C8.17004 46.1798 8.14377 46.4837 8.12076 46.7886L0.143466 46.1862ZM99.927 47.2766C99.9464 47.6377 99.962 47.9998 99.9737 48.3628L91.9778 48.6204C91.968 48.3147 91.9548 48.0099 91.9385 47.7059L99.927 47.2766ZM0.0263371 48.3628C0.0380323 47.9998 0.0536036 47.6377 0.0730135 47.2766L8.06148 47.7059C8.04515 48.0099 8.03204 48.3147 8.02219 48.6204L0.0263371 48.3628ZM99.9971 49.453C99.999 49.6351 100 49.8174 100 50C100 50.1826 99.999 50.3649 99.9971 50.547L91.9975 50.4611C91.9992 50.3076 92 50.1539 92 50C92 49.8461 91.9992 49.6924 91.9975 49.5389L99.9971 49.453ZM0 50C0 49.8174 0.000980139 49.6351 0.00293565 49.453L8.00247 49.5389C8.00083 49.6924 8 49.8461 8 50C8 50.1539 8.00083 50.3076 8.00247 50.4611L0.00293565 50.547C0.000980139 50.3649 0 50.1826 0 50ZM99.9737 51.6372C99.962 52.0002 99.9464 52.3623 99.927 52.7234L91.9385 52.2941C91.9548 51.9901 91.968 51.6853 91.9778 51.3796L99.9737 51.6372ZM0.073014 52.7234C0.0536041 52.3623 0.0380325 52.0002 0.0263374 51.6372L8.02219 51.3796C8.03204 51.6853 8.04515 51.9901 8.06148 52.2941L0.073014 52.7234ZM99.8565 53.8138C99.8292 54.1762 99.7979 54.5376 99.7629 54.898L91.8005 54.1231C91.83 53.8202 91.8562 53.5163 91.8792 53.2114L99.8565 53.8138ZM0.23714 54.898C0.202073 54.5377 0.170835 54.1762 0.143467 53.8138L8.12076 53.2114C8.14378 53.5163 8.17004 53.8202 8.19952 54.1231L0.23714 54.898ZM99.6452 55.984C99.6021 56.3455 99.555 56.7059 99.5042 57.0651L91.5832 55.9439C91.6259 55.6423 91.6654 55.3395 91.7016 55.0357L99.6452 55.984ZM0.495795 57.0651C0.444956 56.7059 0.397938 56.3455 0.354782 55.984L8.29839 55.0358C8.33465 55.3395 8.37415 55.6423 8.41685 55.944L0.495795 57.0651ZM99.3395 58.1435C99.2806 58.5032 99.2178 58.8617 99.1512 59.2189L91.2867 57.7523C91.3426 57.4525 91.3954 57.1516 91.4449 56.8495L99.3395 58.1435ZM0.848855 59.2189C0.782245 58.8618 0.719435 58.5033 0.660468 58.1435L8.55513 56.8495C8.60464 57.1516 8.65736 57.4525 8.71327 57.7523L0.848855 59.2189ZM98.9396 60.2881C98.8649 60.6452 98.7864 61.001 98.704 61.3553L90.9115 59.5451C90.9806 59.2478 91.0465 58.9493 91.1092 58.6496L98.9396 60.2881ZM1.29597 61.3554C1.21365 61.001 1.13511 60.6453 1.06038 60.2881L8.89079 58.6496C8.9535 58.9493 9.01941 59.2479 9.08847 59.5452L1.29597 61.3554ZM98.4458 62.414C98.3555 62.7675 98.2614 63.1196 98.1635 63.4701L90.4581 61.3192C90.5402 61.0252 90.6191 60.7299 90.6949 60.4333L98.4458 62.414ZM1.83646 63.4701C1.73863 63.1196 1.64451 62.7676 1.55417 62.414L9.30509 60.4333C9.38088 60.7299 9.45984 61.0253 9.54191 61.3193L1.83646 63.4701ZM97.8588 64.5174C97.7531 64.8662 97.6437 65.2135 97.5306 65.559L89.9272 63.0715C90.022 62.7816 90.1138 62.4904 90.2024 62.1978L97.8588 64.5174ZM2.46939 65.5591C2.35633 65.2135 2.24694 64.8663 2.14125 64.5174L9.79757 62.1978C9.88622 62.4904 9.97799 62.7817 10.0728 63.0715L2.46939 65.5591ZM97.1798 66.5927C97.059 66.9362 96.9346 67.278 96.8065 67.618L89.3198 64.7988C89.4272 64.5135 89.5316 64.2267 89.6329 63.9386L97.1798 66.5927ZM3.19349 67.6181C3.06544 67.278 2.94098 66.9362 2.82017 66.5927L10.3671 63.9386C10.4684 64.2268 10.5728 64.5135 10.6802 64.7988L3.19349 67.6181ZM96.4105 68.6357C96.2748 68.9734 96.1355 69.3092 95.9927 69.6431L88.637 66.4978C88.7568 66.2176 88.8736 65.9358 88.9875 65.6525L96.4105 68.6357ZM4.0073 69.6432C3.86451 69.3092 3.72524 68.9734 3.58954 68.6357L11.0125 65.6525C11.1264 65.9358 11.2432 66.2176 11.363 66.4978L4.0073 69.6432ZM95.5523 70.6426C95.4019 70.9739 95.2481 71.3032 95.0908 71.6305L87.8801 68.1657C88.0121 67.8909 88.1412 67.6146 88.2674 67.3366L95.5523 70.6426ZM4.90918 71.6306C4.7519 71.3032 4.59807 70.9739 4.44774 70.6427L11.7326 67.3366C11.8588 67.6146 11.9879 67.891 12.1199 68.1657L4.90918 71.6306ZM94.607 72.6097C94.4423 72.9341 94.2742 73.2564 94.1026 73.5767L87.0505 69.7995C87.1945 69.5306 87.3357 69.2599 87.474 68.9876L94.607 72.6097ZM5.89739 73.5767C5.72586 73.2565 5.5577 72.9341 5.39297 72.6097L12.526 68.9876C12.6643 69.26 12.8055 69.5306 12.9495 69.7995L5.89739 73.5767ZM93.5768 74.5331C93.398 74.85 93.2159 75.1648 93.0305 75.4773L86.1502 71.3956C86.3059 71.1331 86.4588 70.8687 86.609 70.6026L93.5768 74.5331ZM6.96952 75.4774C6.7841 75.1648 6.60198 74.8501 6.42321 74.5332L13.391 70.6026C13.5412 70.8687 13.6941 71.1331 13.8499 71.3956L6.96952 75.4774ZM92.4637 76.4094C92.2713 76.7182 92.0756 77.0248 91.8767 77.329L85.1809 72.9511C85.348 72.6955 85.5124 72.4379 85.674 72.1785L92.4637 76.4094ZM8.12335 77.329C7.92444 77.0248 7.72875 76.7183 7.53633 76.4095L14.326 72.1785C14.4876 72.438 14.652 72.6955 14.8192 72.9511L8.12335 77.329ZM91.27 78.2352C91.0643 78.5352 90.8555 78.833 90.6435 79.1283L84.1446 74.4631C84.3228 74.2149 84.4983 73.9647 84.6711 73.7125L91.27 78.2352ZM9.35653 79.1283C9.14455 78.833 8.9357 78.5353 8.73003 78.2352L15.3289 73.7125C15.5018 73.9647 15.6773 74.2149 15.8554 74.4631L9.35653 79.1283ZM89.9981 80.007C89.7796 80.2978 89.558 80.5862 89.3334 80.872L83.0434 75.9287C83.2322 75.6885 83.4185 75.4461 83.6021 75.2016L89.9981 80.007ZM10.6666 80.872C10.442 80.5862 10.2204 80.2978 10.0019 80.007L16.3979 75.2017C16.5815 75.4461 16.7678 75.6885 16.9566 75.9288L10.6666 80.872ZM88.6505 81.7218C88.4196 82.0028 88.1858 82.2812 87.949 82.557L81.8795 77.3454C82.0786 77.1135 82.2752 76.8794 82.4692 76.6432L88.6505 81.7218ZM12.051 82.557C11.8142 82.2812 11.5804 82.0028 11.3496 81.7219L17.5308 76.6432C17.7249 76.8795 17.9215 77.1135 18.1206 77.3454L12.051 82.557ZM87.2298 83.3764C86.987 83.647 86.7414 83.915 86.4929 84.1802L80.6551 78.7103C80.864 78.4873 81.0706 78.262 81.2747 78.0344L87.2298 83.3764ZM13.5071 84.1802C13.2586 83.915 13.013 83.6471 12.7703 83.3765L18.7253 78.0345C18.9294 78.262 19.136 78.4873 19.345 78.7103L13.5071 84.1802ZM85.7388 84.9677C85.4846 85.2275 85.2275 85.4845 84.9678 85.7387L79.3726 80.0209C79.591 79.8071 79.8071 79.591 80.0209 79.3726L85.7388 84.9677ZM15.0323 85.7388C14.7725 85.4846 14.5155 85.2275 14.2613 84.9678L19.9791 79.3726C20.1929 79.591 20.409 79.8071 20.6275 80.0209L15.0323 85.7388ZM84.1802 86.4929C83.915 86.7414 83.6471 86.987 83.3765 87.2297L78.0345 81.2747C78.262 81.0706 78.4873 80.864 78.7103 80.655L84.1802 86.4929ZM16.6236 87.2298C16.353 86.987 16.085 86.7414 15.8198 86.4929L21.2897 80.6551C21.5127 80.864 21.738 81.0706 21.9656 81.2747L16.6236 87.2298ZM82.557 87.949C82.2812 88.1858 82.0028 88.4196 81.7219 88.6504L76.6432 82.4692C76.8795 82.2751 77.1135 82.0785 77.3454 81.8794L82.557 87.949ZM18.2782 88.6505C17.9972 88.4196 17.7188 88.1858 17.443 87.949L22.6546 81.8795C22.8865 82.0786 23.1206 82.2752 23.3568 82.4692L18.2782 88.6505ZM80.872 89.3334C80.5862 89.558 80.2978 89.7796 80.007 89.9981L75.2017 83.6021C75.4461 83.4185 75.6885 83.2322 75.9288 83.0434L80.872 89.3334ZM19.993 89.9981C19.7022 89.7796 19.4138 89.558 19.128 89.3334L24.0713 83.0434C24.3115 83.2322 24.5539 83.4185 24.7984 83.6021L19.993 89.9981ZM79.1283 90.6435C78.833 90.8555 78.5353 91.0643 78.2352 91.27L73.7125 84.6711C73.9647 84.4982 74.2149 84.3227 74.4631 84.1446L79.1283 90.6435ZM21.7648 91.27C21.4647 91.0643 21.167 90.8555 20.8717 90.6435L25.5369 84.1446C25.7851 84.3228 26.0353 84.4983 26.2875 84.6711L21.7648 91.27ZM77.329 91.8766C77.0248 92.0756 76.7183 92.2712 76.4095 92.4637L72.1785 85.674C72.438 85.5124 72.6955 85.348 72.9511 85.1808L77.329 91.8766ZM23.5906 92.4637C23.2818 92.2713 22.9752 92.0756 22.671 91.8767L27.0489 85.1809C27.3045 85.348 27.5621 85.5124 27.8215 85.674L23.5906 92.4637ZM75.4774 93.0305C75.1648 93.2159 74.8501 93.398 74.5332 93.5768L70.6026 86.609C70.8687 86.4588 71.1331 86.3059 71.3956 86.1501L75.4774 93.0305ZM25.4669 93.5768C25.15 93.398 24.8352 93.2159 24.5227 93.0305L28.6044 86.1502C28.8669 86.3059 29.1313 86.4588 29.3974 86.609L25.4669 93.5768ZM73.5767 94.1026C73.2565 94.2741 72.9341 94.4423 72.6097 94.607L68.9876 87.474C69.26 87.3357 69.5306 87.1945 69.7995 87.0505L73.5767 94.1026ZM27.3903 94.607C27.0659 94.4423 26.7436 94.2742 26.4233 94.1026L30.2005 87.0505C30.4694 87.1945 30.7401 87.3357 31.0124 87.474L27.3903 94.607ZM71.6306 95.0908C71.3032 95.2481 70.9739 95.4019 70.6427 95.5523L67.3366 88.2674C67.6146 88.1412 67.891 88.0121 68.1657 87.8801L71.6306 95.0908ZM29.3574 95.5523C29.0261 95.4019 28.6968 95.2481 28.3695 95.0908L31.8343 87.8801C32.1091 88.0121 32.3855 88.1412 32.6634 88.2674L29.3574 95.5523ZM69.6432 95.9927C69.3092 96.1355 68.9734 96.2748 68.6357 96.4105L65.6525 88.9875C65.9358 88.8736 66.2176 88.7568 66.4978 88.637L69.6432 95.9927ZM31.3643 96.4105C31.0266 96.2748 30.6908 96.1355 30.3569 95.9927L33.5022 88.637C33.7824 88.7568 34.0642 88.8736 34.3475 88.9875L31.3643 96.4105ZM67.6181 96.8065C67.278 96.9346 66.9362 97.059 66.5927 97.1798L63.9386 89.6329C64.2268 89.5316 64.5135 89.4272 64.7988 89.3197L67.6181 96.8065ZM33.4073 97.1798C33.0638 97.059 32.722 96.9346 32.382 96.8065L35.2012 89.3198C35.4865 89.4272 35.7733 89.5316 36.0614 89.6329L33.4073 97.1798ZM65.5591 97.5306C65.2135 97.6437 64.8663 97.7531 64.5174 97.8587L62.1978 90.2024C62.4904 90.1138 62.7817 90.022 63.0715 89.9272L65.5591 97.5306ZM35.4826 97.8588C35.1338 97.7531 34.7865 97.6437 34.441 97.5306L36.9285 89.9272C37.2184 90.022 37.5096 90.1138 37.8022 90.2024L35.4826 97.8588ZM63.4701 98.1635C63.1196 98.2614 62.7676 98.3555 62.414 98.4458L60.4333 90.6949C60.7299 90.6191 61.0253 90.5402 61.3193 90.4581L63.4701 98.1635ZM37.586 98.4458C37.2325 98.3555 36.8804 98.2614 36.5299 98.1635L38.6808 90.4581C38.9748 90.5402 39.2701 90.6191 39.5667 90.6949L37.586 98.4458ZM61.3554 98.704C61.001 98.7863 60.6453 98.8649 60.2881 98.9396L58.6496 91.1092C58.9493 91.0465 59.2479 90.9806 59.5452 90.9115L61.3554 98.704ZM39.7119 98.9396C39.3548 98.8649 38.999 98.7864 38.6447 98.704L40.4549 90.9115C40.7522 90.9806 41.0507 91.0465 41.3504 91.1092L39.7119 98.9396ZM59.2189 99.1511C58.8618 99.2178 58.5033 99.2806 58.1435 99.3395L56.8495 91.4449C57.1516 91.3954 57.4525 91.3426 57.7523 91.2867L59.2189 99.1511ZM41.8565 99.3395C41.4968 99.2806 41.1383 99.2178 40.7811 99.1512L42.2477 91.2867C42.5475 91.3426 42.8484 91.3954 43.1505 91.4449L41.8565 99.3395ZM57.0651 99.5042C56.7059 99.555 56.3455 99.6021 55.984 99.6452L55.0358 91.7016C55.3395 91.6654 55.6423 91.6259 55.944 91.5832L57.0651 99.5042ZM44.016 99.6452C43.6545 99.6021 43.2941 99.555 42.9349 99.5042L44.0561 91.5832C44.3577 91.6259 44.6605 91.6654 44.9643 91.7016L44.016 99.6452ZM54.898 99.7629C54.5377 99.7979 54.1762 99.8292 53.8138 99.8565L53.2114 91.8792C53.5163 91.8562 53.8202 91.83 54.1231 91.8005L54.898 99.7629ZM46.1862 99.8565C45.8238 99.8292 45.4624 99.7979 45.102 99.7629L45.8769 91.8005C46.1798 91.83 46.4837 91.8562 46.7886 91.8792L46.1862 99.8565ZM48.3628 99.9737C47.9998 99.962 47.6377 99.9464 47.2766 99.927L47.7059 91.9385C48.0099 91.9548 48.3147 91.968 48.6204 91.9778L48.3628 99.9737ZM52.7234 99.927C52.3623 99.9464 52.0002 99.962 51.6372 99.9737L51.3796 91.9778C51.6853 91.968 51.9901 91.9548 52.2941 91.9385L52.7234 99.927ZM50 100C49.8174 100 49.6351 99.999 49.453 99.9971L49.5389 91.9975C49.6924 91.9992 49.8461 92 50 92C50.1539 92 50.3076 91.9992 50.4611 91.9975L50.547 99.9971C50.3649 99.999 50.1826 100 50 100Z" fill="#8C88A2" fill-opacity="0.24"/>
<path fill-rule="evenodd" clip-rule="evenodd" d="M49.4817 0.002635C49.6543 0.000879526 49.827 0 50 0C50.173 0 50.3457 0.000879526 50.5183 0.002635L50.4369 8.00222C50.2915 8.00074 50.1458 8 50 8C49.8542 8 49.7085 8.00074 49.5631 8.00222L49.4817 0.002635ZM99.9974 49.4817C99.9991 49.6543 100 49.827 100 50C100 50.173 99.9991 50.3457 99.9974 50.5183L91.9978 50.4369C91.9993 50.2915 92 50.1458 92 50C92 49.8542 91.9993 49.7085 91.9978 49.5631L99.9974 49.4817ZM0 50C0 49.827 0.000879526 49.6543 0.002635 49.4817L8.00222 49.5631C8.00074 49.7085 8 49.8542 8 50C8 50.1458 8.00074 50.2915 8.00222 50.4369L0.002635 50.5183C0.000879526 50.3457 0 50.173 0 50ZM50 100C49.827 100 49.6543 99.9991 49.4817 99.9974L49.5631 91.9978C49.7085 91.9993 49.8542 92 50 92C50.1458 92 50.2915 91.9993 50.4369 91.9978L50.5183 99.9974C50.3457 99.9991 50.173 100 50 100Z" fill="#BBBABE" fill-opacity="0.24"/>
<path d="M47.0664 7.67383C46.9082 7.67383 46.79 7.63379 46.7119 7.55371C46.6357 7.47559 46.5977 7.38281 46.5977 7.27539C46.5977 7.18164 46.624 7.08887 46.6768 6.99707L49.4365 2.20996C49.4775 2.13965 49.5332 2.08594 49.6035 2.04883C49.6758 2.00977 49.7529 1.99023 49.835 1.99023C49.917 1.99023 49.9932 2.00977 50.0635 2.04883C50.1357 2.08594 50.1924 2.13965 50.2334 2.20996L52.9961 6.99707C53.0469 7.08887 53.0723 7.18164 53.0723 7.27539C53.0723 7.38281 53.0332 7.47559 52.9551 7.55371C52.8789 7.63379 52.7617 7.67383 52.6035 7.67383H47.0664Z" fill="#A9AABA"/>
<path d="M46.043 18V9.54492H47.3555L51.8906 15.9023L50.8477 15.3691H51.6035V9.54492H53.0566V18H51.75L47.2148 11.6367L48.2578 12.1699H47.502V18H46.043Z" fill="#AAAABA"/>
<path d="M11.7832 55L9.51562 46.5449H11.0859L12.5391 52.8906H12.6211L14.291 46.5449H15.6328L17.3203 52.8906H17.4023L18.8496 46.5449H20.4082L18.1465 55H16.7285L15.0059 48.9473H14.918L13.207 55H11.7832Z" fill="#AAAABA"/>
<path d="M84.043 54V45.5449H89.5156V46.8164H85.5547V49.1074H89.2988V50.3086H85.5547V52.7285H89.5156V54H84.043Z" fill="#AAAABA"/>
<path d="M49.9785 90.2109C49.3223 90.2109 48.752 90.1094 48.2676 89.9062C47.7871 89.7031 47.4082 89.4199 47.1309 89.0566C46.8535 88.6934 46.6973 88.2695 46.6621 87.7852L46.6562 87.7031H48.1211L48.127 87.7617C48.1504 88 48.2441 88.207 48.4082 88.3828C48.5762 88.5586 48.7988 88.6973 49.0762 88.7988C49.3535 88.8965 49.6699 88.9453 50.0254 88.9453C50.3652 88.9453 50.666 88.8926 50.9277 88.7871C51.1895 88.6816 51.3945 88.5371 51.543 88.3535C51.6914 88.166 51.7656 87.9512 51.7656 87.709V87.7031C51.7656 87.3984 51.6465 87.1504 51.4082 86.959C51.1699 86.7637 50.7773 86.6074 50.2305 86.4902L49.3223 86.3027C48.4551 86.1191 47.8242 85.8262 47.4297 85.4238C47.0391 85.0176 46.8438 84.5 46.8438 83.8711V83.8652C46.8438 83.3613 46.9766 82.9199 47.2422 82.541C47.5117 82.1621 47.8809 81.8672 48.3496 81.6562C48.8223 81.4414 49.3633 81.334 49.9727 81.334C50.5977 81.334 51.1387 81.4395 51.5957 81.6504C52.0527 81.8574 52.4121 82.1406 52.6738 82.5C52.9355 82.8594 53.082 83.2656 53.1133 83.7188L53.1191 83.7949H51.6777L51.666 83.7246C51.6309 83.502 51.5391 83.3086 51.3906 83.1445C51.2461 82.9766 51.0527 82.8438 50.8105 82.7461C50.5684 82.6484 50.2852 82.5996 49.9609 82.5996C49.6523 82.5996 49.377 82.6484 49.1348 82.7461C48.8926 82.8398 48.7012 82.9727 48.5605 83.1445C48.4238 83.3164 48.3555 83.5234 48.3555 83.7656V83.7715C48.3555 84.0684 48.4707 84.3145 48.7012 84.5098C48.9355 84.7051 49.3164 84.8574 49.8438 84.9668L50.752 85.1602C51.3457 85.2852 51.8281 85.4512 52.1992 85.6582C52.5703 85.8652 52.8418 86.123 53.0137 86.4316C53.1895 86.7363 53.2773 87.1035 53.2773 87.5332V87.5391C53.2773 88.0859 53.1426 88.5586 52.873 88.957C52.6074 89.3555 52.2266 89.6641 51.7305 89.8828C51.2383 90.1016 50.6543 90.2109 49.9785 90.2109Z" fill="#AAAABA"/>
<path fill-rule="evenodd" clip-rule="evenodd" d="M0 50L9.80392 55.7735L8.33333 51H92.2301C92.5834 52.839 94.1721 54.2265 96.0785 54.2265C98.2443 54.2265 100 52.4356 100 50.2265C100 48.0174 98.2443 46.2265 96.0785 46.2265C94.3321 46.2265 92.8523 47.3909 92.3447 49H8.33333L9.80392 44.2265L0 50ZM94.1177 50.2265C94.1177 49.1219 94.9955 48.2265 96.0785 48.2265C97.1614 48.2265 98.0392 49.1219 98.0392 50.2265C98.0392 51.3311 97.1614 52.2265 96.0785 52.2265C94.9955 52.2265 94.1177 51.3311 94.1177 50.2265Z" fill="white"/>
</svg>
